# xmcd
#
# Track frame offsets:
# 150
# 11934
# 28888
# 47785
# 69442
# 85326
# 103155
# 129701
# 162461
# 181338
#
# Disc length: 2602 seconds
#
#
# Revision: 0
# Processed by: cddbd v1.5.2PL0 Copyright (c) Steve Scherf et al.
# Submitted via: FreeRIP 2.943 
#
DISCID=8d0a280a
DTITLE=harvey milk - the pleaser [reissue]
DYEAR=2007
DGENRE=Satire
TTITLE0=down
TTITLE1=get it up and get it on
TTITLE2=shame
TTITLE3=red as the day is long
TTITLE4=misery
TTITLE5=u.s. force
TTITLE6=what i want
TTITLE7=lay my head down
TTITLE8=rock and roll party tonite
TTITLE9=anthem
EXTD=
EXTT0=
EXTT1=
EXTT2=
EXTT3=
EXTT4=
EXTT5=
EXTT6=
EXTT7=
EXTT8=
EXTT9=
PLAYORDER=
